# xmcd CD database file
#
# Track frame offsets:
#	150
#	31456
#	54195
#	79929
#	111113
#	117337
#	125837
#	161296
#	181094
#
# Disc length: 2817 seconds
#
# Revision: 0
# Processed by: cddbd v1.5.1PL0 Copyright (c) Steve Scherf et al.
# Submitted via: CDex 1.51
#
DISCID=6d0aff09
DTITLE=Mike Bogle - Eternal Family
DYEAR=2004
DGENRE=Jazz
TTITLE0=Swing Dreams
TTITLE1=Eternal Family
TTITLE2=Leaves
TTITLE3=McCoy
TTITLE4=Yearning
TTITLE5=Sentimental
TTITLE6=You've Changed
TTITLE7=Billie's Bounce
TTITLE8=Donna Lee
EXTD=YEAR: 2004
EXTT0=
EXTT1=
EXTT2=
EXTT3=
EXTT4=
EXTT5=
EXTT6=
EXTT7=
EXTT8=
PLAYORDER=
